<svg width="23" height="24" viewBox="0 0 23 24" fill="none" xmlns="http://www.w3.org/2000/svg">
<path fill-rule="evenodd" clip-rule="evenodd" d="M1.82422 0.0916862C0.988037 0.347721 0.309674 1.10195 0.0867327 2.02344C-0.0289109 2.50152 -0.0289109 21.4945 0.0867327 21.9726C0.313421 22.9095 0.99485 23.6567 1.85261 23.9089C2.23003 24.0198 19.4103 24.0347 19.889 23.9245C20.7789 23.7196 21.5543 22.8659 21.744 21.8821C21.7791 21.7 21.8078 21.201 21.8078 20.7731V19.9952H16.2277C10.0708 19.9952 10.2828 20.0079 9.66664 19.6021C9.07633 19.2133 8.6556 18.5402 8.52854 17.7814C8.44236 17.2665 8.44236 6.72952 8.52854 6.21471C8.6556 5.45585 9.07633 4.78278 9.66664 4.39398C10.2828 3.98818 10.0708 4.00086 16.2277 4.00086H21.8078V3.22295C21.8078 2.7951 21.7791 2.29609 21.744 2.11397C21.5599 1.15918 20.8482 0.346408 19.9712 0.0894368C19.5594 -0.0312705 2.21867 -0.0290835 1.82422 0.0916862ZM10.9077 11.998V17.3087H16.9538H23V11.998V6.68741H16.9538H10.9077V11.998ZM16.5492 10.2107C16.8909 10.3948 17.1926 10.7263 17.3912 11.1362C17.5005 11.3617 17.5212 11.4991 17.5212 11.998C17.5212 12.4969 17.5005 12.6344 17.3912 12.8599C17.1909 13.2733 16.8902 13.6017 16.5372 13.7924C16.1037 14.0266 15.4582 14.0371 15.0115 13.8172C14.6575 13.643 14.2396 13.1727 14.0731 12.7613C13.9086 12.3548 13.9081 11.6424 14.0721 11.2373C14.2098 10.897 14.6016 10.4073 14.8503 10.2646C15.3982 9.95026 16.0282 9.93027 16.5492 10.2107Z" fill="black"/>
</svg>
