<svg width="34" height="34" viewBox="0 0 34 34" fill="none" xmlns="http://www.w3.org/2000/svg">
<g filter="url(#filter0_d_122_279)">
<path fill-rule="evenodd" clip-rule="evenodd" d="M17 29L17.0649 28.9998V24.9997L17 25C12.5817 25 9 21.4183 9 17C9 12.5817 12.5817 9 17 9L17.0649 9.00026V5.00017L17 5C10.3726 5 5 10.3726 5 17C5 23.6274 10.3726 29 17 29ZM29 17C29 10.7093 24.1595 5.54923 18 5.04107V9.06189C21.9463 9.55399 25 12.9204 25 17C25 21.0796 21.9463 24.446 18 24.9381V28.9589C24.1595 28.4508 29 23.2907 29 17Z" fill="black"/>
</g>
<defs>
<filter id="filter0_d_122_279" x="0" y="0" width="34" height="34" filterUnits="userSpaceOnUse" color-interpolation-filters="sRGB">
<feFlood flood-opacity="0" result="BackgroundImageFix"/>
<feColorMatrix in="SourceAlpha" type="matrix" values="0 0 0 0 0 0 0 0 0 0 0 0 0 0 0 0 0 0 127 0" result="hardAlpha"/>
<feOffset/>
<feGaussianBlur stdDeviation="2.5"/>
<feComposite in2="hardAlpha" operator="out"/>
<feColorMatrix type="matrix" values="0 0 0 0 0 0 0 0 0 0 0 0 0 0 0 0 0 0 0.25 0"/>
<feBlend mode="normal" in2="BackgroundImageFix" result="effect1_dropShadow_122_279"/>
<feBlend mode="normal" in="SourceGraphic" in2="effect1_dropShadow_122_279" result="shape"/>
</filter>
</defs>
</svg>
