<svg width="34" height="34" viewBox="0 0 34 34" fill="none" xmlns="http://www.w3.org/2000/svg">
<g filter="url(#filter0_d_122_279)">
<path fill-rule="evenodd" clip-rule="evenodd" d="M16.6924 29L16.7557 28.9998V24.9997L16.6924 25C12.5413 25 9 21.5168 9 17C9 12.4832 12.5413 9 16.6924 9L16.7557 9.00027V5.00017L16.6924 5C10.2349 5 5 10.3726 5 17C5 23.6274 10.2349 29 16.6924 29ZM28.3849 17.0001C28.3849 10.7094 23.6685 5.54929 17.6668 5.04113V9.06452C21.3828 9.55886 24.3849 12.8413 24.3849 17.0001C24.3849 21.1588 21.3828 24.4413 17.6668 24.9356V28.959C23.6685 28.4508 28.3849 23.2907 28.3849 17.0001Z" fill="black"/>
</g>
<defs>
<filter id="filter0_d_122_279" x="0" y="0" width="33.3849" height="34" filterUnits="userSpaceOnUse" color-interpolation-filters="sRGB">
<feFlood flood-opacity="0" result="BackgroundImageFix"/>
<feColorMatrix in="SourceAlpha" type="matrix" values="0 0 0 0 0 0 0 0 0 0 0 0 0 0 0 0 0 0 127 0" result="hardAlpha"/>
<feOffset/>
<feGaussianBlur stdDeviation="2.5"/>
<feComposite in2="hardAlpha" operator="out"/>
<feColorMatrix type="matrix" values="0 0 0 0 0 0 0 0 0 0 0 0 0 0 0 0 0 0 0.25 0"/>
<feBlend mode="normal" in2="BackgroundImageFix" result="effect1_dropShadow_122_279"/>
<feBlend mode="normal" in="SourceGraphic" in2="effect1_dropShadow_122_279" result="shape"/>
</filter>
</defs>
</svg>
