<svg width="24" height="24" viewBox="0 0 24 24" fill="none" xmlns="http://www.w3.org/2000/svg">
<path fill-rule="evenodd" clip-rule="evenodd" d="M9.33345 1C9.33345 0.447716 9.78117 0 10.3335 0H13.2565C13.8088 0 14.2565 0.447715 14.2565 1V23C14.2565 23.5523 13.8088 24 13.2565 24H10.3335C9.78117 24 9.33345 23.5523 9.33345 23V1ZM0 13C0 12.4477 0.447715 12 1 12H4.33335C4.88563 12 5.33335 12.4477 5.33335 13V23C5.33335 23.5523 4.88563 24 4.33335 24H1C0.447716 24 0 23.5523 0 23V13ZM19.6667 17C19.1144 17 18.6667 17.4477 18.6667 18V23C18.6667 23.5523 19.1144 24 19.6667 24H23C23.5523 24 24 23.5523 24 23V18C24 17.4477 23.5523 17 23 17H19.6667Z" fill="black"/>
</svg>
