<svg width="24" height="24" viewBox="0 0 24 24" fill="none" xmlns="http://www.w3.org/2000/svg">
<path fill-rule="evenodd" clip-rule="evenodd" d="M9.12402 1C9.12402 0.447716 9.57174 0 10.124 0H12.9366C13.4889 0 13.9366 0.447715 13.9366 1V23C13.9366 23.5523 13.4889 24 12.9366 24H10.124C9.57174 24 9.12402 23.5523 9.12402 23V1ZM0 13C0 12.4477 0.447715 12 1 12H4.21367C4.76596 12 5.21368 12.4477 5.21368 13V23C5.21368 23.5523 4.76596 24 4.21368 24H1C0.447716 24 0 23.5523 0 23V13ZM19.2478 17C18.6955 17 18.2478 17.4477 18.2478 18V23C18.2478 23.5523 18.6955 24 19.2478 24H22.4615C23.0138 24 23.4615 23.5523 23.4615 23V18C23.4615 17.4477 23.0138 17 22.4615 17H19.2478Z" fill="black"/>
</svg>
