<svg width="24" height="24" viewBox="0 0 24 24" fill="none" xmlns="http://www.w3.org/2000/svg">
<path fill-rule="evenodd" clip-rule="evenodd" d="M0 3C0 1.34315 1.34315 0 3 0H20.3849C22.0417 0 23.3849 1.34315 23.3849 3V21C23.3849 22.6569 22.0417 24 20.3849 24H3C1.34314 24 0 22.6569 0 21V3ZM4.87183 16C4.87183 15.4477 5.31954 15 5.87183 15H17.513C18.0653 15 18.513 15.4477 18.513 16C18.513 16.5523 18.0653 17 17.513 17H5.87183C5.31954 17 4.87183 16.5523 4.87183 16ZM5.87183 12C5.31954 12 4.87183 12.4477 4.87183 13C4.87183 13.5523 5.31954 14 5.87183 14H17.513C18.0653 14 18.513 13.5523 18.513 13C18.513 12.4477 18.0653 12 17.513 12H5.87183ZM4.87183 10C4.87183 9.44771 5.31954 9 5.87183 9H17.513C18.0653 9 18.513 9.44771 18.513 10C18.513 10.5523 18.0653 11 17.513 11H5.87183C5.31954 11 4.87183 10.5523 4.87183 10ZM5.87183 6C5.31954 6 4.87183 6.44772 4.87183 7C4.87183 7.55228 5.31954 8 5.87183 8H17.513C18.0653 8 18.513 7.55228 18.513 7C18.513 6.44772 18.0653 6 17.513 6H5.87183Z" fill="black"/>
</svg>
