<svg width="24" height="24" viewBox="0 0 24 24" fill="none" xmlns="http://www.w3.org/2000/svg">
<path fill-rule="evenodd" clip-rule="evenodd" d="M0 3C0 1.34315 1.34315 0 3 0H21C22.6569 0 24 1.34315 24 3V21C24 22.6569 22.6569 24 21 24H3C1.34315 24 0 22.6569 0 21V3ZM4.99998 16C4.99998 15.4477 5.44769 15 5.99998 15H18C18.5523 15 19 15.4477 19 16C19 16.5523 18.5523 17 18 17H5.99998C5.44769 17 4.99998 16.5523 4.99998 16ZM5.99998 12C5.44769 12 4.99998 12.4477 4.99998 13C4.99998 13.5523 5.44769 14 5.99998 14H18C18.5523 14 19 13.5523 19 13C19 12.4477 18.5523 12 18 12H5.99998ZM4.99998 10C4.99998 9.44771 5.44769 9 5.99998 9H18C18.5523 9 19 9.44771 19 10C19 10.5523 18.5523 11 18 11H5.99998C5.44769 11 4.99998 10.5523 4.99998 10ZM5.99998 6C5.44769 6 4.99998 6.44772 4.99998 7C4.99998 7.55228 5.44769 8 5.99998 8H18C18.5523 8 19 7.55228 19 7C19 6.44772 18.5523 6 18 6H5.99998Z" fill="black"/>
</svg>
