<svg width="24" height="24" viewBox="0 0 24 24" fill="none" xmlns="http://www.w3.org/2000/svg">
<path d="M12.48 24C13.9928 24 15.4908 23.6896 16.8885 23.0866C18.2862 22.4835 19.5561 21.5996 20.6259 20.4853C21.6956 19.371 22.5442 18.0481 23.1231 16.5922C23.702 15.1363 24 13.5759 24 12C24 10.4241 23.702 8.86371 23.1231 7.4078C22.5442 5.95189 21.6956 4.62902 20.6259 3.51472C19.5561 2.40042 18.2862 1.5165 16.8885 0.913445C15.4908 0.310389 13.9928 -6.88831e-08 12.48 0L12.48 4.2C13.4633 4.2 14.437 4.40175 15.3455 4.79374C16.254 5.18573 17.0795 5.76027 17.7748 6.48457C18.4701 7.20886 19.0217 8.06873 19.398 9.01507C19.7743 9.96141 19.968 10.9757 19.968 12C19.968 13.0243 19.7743 14.0386 19.398 14.9849C19.0217 15.9313 18.4701 16.7911 17.7748 17.5154C17.0795 18.2397 16.254 18.8143 15.3455 19.2063C14.437 19.5982 13.4633 19.8 12.48 19.8L12.48 24Z" fill="black"/>
<path d="M11.52 24C10.0072 24 8.50916 23.6896 7.11149 23.0866C5.71382 22.4835 4.44386 21.5996 3.37413 20.4853C2.3044 19.371 1.45584 18.0481 0.876907 16.5922C0.297974 15.1363 0 13.5759 0 12C0 10.4241 0.297974 8.86371 0.876907 7.4078C1.45584 5.95189 2.3044 4.62902 3.37413 3.51472C4.44386 2.40042 5.71382 1.5165 7.11149 0.913445C8.50916 0.310389 10.0072 -6.88831e-08 11.52 0L11.52 4.2C10.5367 4.2 9.56295 4.40175 8.65447 4.79374C7.74598 5.18573 6.92051 5.76027 6.22519 6.48457C5.52986 7.20886 4.9783 8.06873 4.60199 9.01507C4.22568 9.96141 4.032 10.9757 4.032 12C4.032 13.0243 4.22568 14.0386 4.60199 14.9849C4.9783 15.9313 5.52986 16.7911 6.22519 17.5154C6.92051 18.2397 7.74598 18.8143 8.65447 19.2063C9.56295 19.5982 10.5367 19.8 11.52 19.8L11.52 24Z" fill="black"/>
</svg>
