<svg width="24" height="16" viewBox="0 0 24 16" fill="none" xmlns="http://www.w3.org/2000/svg">
<path d="M18.7963 6.62476C18.546 7.31587 18.2958 8.00674 18.041 8.70947C18.4517 8.70947 18.8406 8.70947 19.2528 8.70947C19.1061 8.00612 18.9624 7.31679 18.8187 6.62775C18.8112 6.62674 18.8038 6.62577 18.7963 6.62476Z" fill="#A7A6A3"/>
<path d="M22.0925 0H1.90709C0.855636 0 0 0.855636 0 1.90748V13.8531C0 14.905 0.855636 15.7606 1.90709 15.7606H22.0925C23.1444 15.7606 24 14.905 24 13.8531V1.90748C24 0.855636 23.1444 0 22.0925 0ZM14.1419 8.69829C13.9918 8.57924 13.8192 8.48573 13.6483 8.39678C13.3637 8.24866 13.0823 8.09855 12.8348 7.8905C12.1289 7.29753 12.2191 6.4686 12.6011 5.91085C12.9154 5.45232 13.3776 5.20968 13.9029 5.07693C14.0702 5.03455 14.2442 5.01893 14.4146 4.99014C14.44 4.98589 14.4646 4.97713 14.4896 4.97041C14.6765 4.97041 14.8635 4.97041 15.0505 4.97041C15.214 4.99731 15.3785 5.0183 15.5401 5.05318C15.6993 5.08747 15.8561 5.13493 16.0133 5.17856C16.0513 5.18905 16.0874 5.20627 16.1319 5.2235C16.0475 5.61692 15.9642 6.00667 15.8808 6.39647C15.6892 6.33605 15.506 6.26736 15.3171 6.2214C14.9772 6.13877 14.6302 6.10336 14.2877 6.19547C14.164 6.2289 14.0393 6.29866 13.9425 6.38321C13.7783 6.52645 13.778 6.73576 13.9365 6.88533C14.0445 6.98716 14.1712 7.07229 14.2994 7.1482C14.5547 7.29912 14.8228 7.42862 15.0747 7.58492C15.4133 7.79511 15.6952 8.06329 15.8081 8.46315C15.9722 9.04392 15.7929 9.81819 15.1461 10.2851C14.774 10.5536 14.3529 10.6942 13.9046 10.7517C13.1995 10.8422 12.5074 10.7731 11.8334 10.5417C11.7959 10.5289 11.7599 10.5121 11.7122 10.4926C11.7993 10.0842 11.8856 9.67878 11.9742 9.26417C12.0312 9.28889 12.0802 9.30858 12.1277 9.33117C12.5447 9.52897 12.9843 9.62368 13.445 9.61826C13.6564 9.61589 13.8636 9.58324 14.0544 9.48243C14.4028 9.29842 14.4489 8.94127 14.1419 8.69829ZM11.7968 5.62167C11.4444 7.27044 11.0907 8.91893 10.7418 10.5687C10.7195 10.6742 10.6819 10.7051 10.574 10.7031C10.1769 10.6958 9.77959 10.7004 9.3823 10.7004C9.34582 10.7004 9.30959 10.7004 9.25469 10.7004C9.65817 8.81589 10.0583 6.94658 10.4584 5.07853C10.9451 5.07853 11.4216 5.07853 11.9102 5.07853C11.8715 5.26428 11.8348 5.44317 11.7968 5.62167ZM9.75091 5.27023C9.00537 7.04976 8.25901 8.82924 7.51502 10.6094C7.48657 10.6774 7.45267 10.7031 7.37657 10.7026C6.92602 10.6986 6.47522 10.6994 6.02453 10.7022C5.95661 10.7028 5.92792 10.6859 5.90969 10.6152C5.53334 9.1499 5.1505 7.68611 4.77754 6.22005C4.71055 5.95699 4.57843 5.77516 4.32752 5.66341C3.91411 5.47964 3.48446 5.3515 3.04557 5.24909C3.02636 5.24449 3.00779 5.23695 2.98897 5.23085C2.98897 5.21736 2.98897 5.20415 2.98897 5.19065C3.00247 5.08012 3.07212 5.07006 3.16921 5.07045C3.93371 5.07456 4.69831 5.07282 5.46286 5.07296C5.84259 5.07296 6.10299 5.2845 6.17371 5.6577C6.36938 6.68922 6.56278 7.72123 6.757 8.75314C6.76377 8.78904 6.77272 8.82445 6.80155 8.8674C7.30188 7.60378 7.80206 6.34026 8.30157 5.07852C8.8094 5.07852 9.31201 5.07852 9.82675 5.07852C9.79918 5.14828 9.77625 5.20967 9.75091 5.27023ZM19.6699 10.6955C19.6275 10.4952 19.5835 10.2947 19.5427 10.0937C19.495 9.85757 19.4962 9.85742 19.2516 9.85742C18.7409 9.85742 18.2303 9.85873 17.7195 9.85597C17.6483 9.85558 17.6137 9.87604 17.5904 9.94536C17.5135 10.1725 17.4313 10.3979 17.3457 10.622C17.3336 10.6536 17.291 10.6954 17.2621 10.6958C16.7785 10.7004 16.2947 10.699 15.8003 10.699C15.8129 10.6638 15.8208 10.6359 15.832 10.6093C16.5434 8.91007 17.255 7.21074 17.9671 5.51151C18.0877 5.2235 18.3109 5.07494 18.6209 5.07455C19.0212 5.07416 19.4215 5.07441 19.8365 5.07441C20.2275 6.9458 20.618 8.81496 21.0108 10.6955C20.5551 10.6955 20.1183 10.6955 19.6699 10.6955Z" fill="#A7A6A3"/>
</svg>
